<?xml version="1.0" encoding="UTF-8"?>
<svg xmlns="http://www.w3.org/2000/svg" width="64" height="64" viewBox="0 0 64 64" fill="none">
  <defs>
    <filter id="bulbGlow" x="-60%" y="-60%" width="220%" height="220%">
      <feGaussianBlur stdDeviation="2.4" result="blur"/>
      <feMerge>
        <feMergeNode in="blur"/>
        <feMergeNode in="SourceGraphic"/>
      </feMerge>
    </filter>
  </defs>
  <path
    d="M31.9 10.8c-9.2 0-16.6 7.1-16.6 15.8 0 5.4 2.8 9.5 6.1 13 2.3 2.4 3.5 4.7 3.9 7.6h13.2c.4-2.9 1.7-5.3 3.9-7.6 3.3-3.5 6.1-7.6 6.1-13 0-8.7-7.4-15.8-16.6-15.8Z"
    stroke="#e8e8df"
    stroke-width="3.2"
    stroke-linejoin="round"
    filter="url(#bulbGlow)"
  />
  <path
    d="M25.3 51.2h13.4M26.7 56h10.6M29.4 60h5.2"
    stroke="#d8d8d1"
    stroke-width="3"
    stroke-linecap="round"
    filter="url(#bulbGlow)"
  />
  <path
    d="M23.9 25.9c.7-3.8 3.7-6.6 7.7-7.1"
    stroke="#f7f2d0"
    stroke-width="2.2"
    stroke-linecap="round"
    opacity=".9"
  />
  <path
    d="M8 25.7h4.8M51.2 25.7H56M17 11.4l3.1 3.4M47 11.4l-3.1 3.4M32 3.5v4.7"
    stroke="#d5d5cf"
    stroke-width="2.4"
    stroke-linecap="round"
    opacity=".62"
    filter="url(#bulbGlow)"
  />
</svg>
